<svg xmlns="http://www.w3.org/2000/svg" width="4000" height="2163" viewBox="0 0 4000 2162.715" class="wave"><path fill="#FFF" d="M3996.801 176.36L2784.16 487.465 1290.719 166.799 3.2 448.106v1670.031h3993.601z"/><path fill="#0F3B63" d="M1999.199 575.575C1041.542 254.389 121.907 575.973 3.2 620.418v1.363c117.077-31.326 1014.717-246.48 2036.919 218.586 992.383 451.408 1828.078-384.379 1828.078-384.379S3015.791 916.43 1999.199 575.575z"/><path fill="#0F3B63" d="M3996.801 137.514c-408.357 140.625-1155.559 299.756-2007.387 13.094C1164.357-127.021 422.137 173.167 3.2 417.7v95.898c422.224-143.562 1176.759-296.045 2039.448 5.904C2892.56 816.934 3603.98 505.897 3996.8 252.799V137.514z"/></svg>